<?xml version="1.0" encoding="UTF-8"?>
<!DOCTYPE svg  PUBLIC '-//W3C//DTD SVG 1.1//EN'  'http://www.w3.org/Graphics/SVG/1.1/DTD/svg11.dtd'>
<svg clip-rule="evenodd" fill-rule="evenodd" image-rendering="optimizeQuality" shape-rendering="geometricPrecision" text-rendering="geometricPrecision" version="1.1" viewBox="0 0 7016 4961" xml:space="preserve" xmlns="http://www.w3.org/2000/svg">
 <defs>
  <style type="text/css">
   <![CDATA[
    .str0 {stroke:#999999;stroke-width:0.900032}
    .fil9 {fill:none}
    .fil1 {fill:black}
    .fil8 {fill:#333333}
    .fil0 {fill:#4D4D4D}
    .fil3 {fill:#999999}
    .fil4 {fill:#CCCCCC}
    .fil7 {fill:#E6E6E6}
    .fil2 {fill:white}
    .fil6 {fill:white}
    .fil5 {fill:#E31E24;fill-rule:nonzero}
   ]]>
  </style>
 </defs>
  <path class="fil0" d="m3509 126c1301 0 2355 1054 2355 2354 0 1301-1054 2355-2355 2355-1300 0-2354-1054-2354-2355 0-1300 1054-2354 2354-2354z"/>
  <path class="fil1" d="m3509 257c1228 0 2224 995 2224 2223s-996 2224-2224 2224-2223-996-2223-2224 995-2223 2223-2223z"/>
  <path class="fil2 str0" d="m3509 627c1024 0 1854 830 1854 1853 0 1024-830 1854-1854 1854-1023 0-1853-830-1853-1854 0-1023 830-1853 1853-1853z"/>
  <path class="fil3 str0" d="m2256 3723c-126-127-233-274-316-434l-63 32c86 167 197 320 329 452l50-50z"/>
  <path class="fil3 str0" d="m1765 2749c-13-88-20-177-20-269 0-91 7-181 20-268l-71-11c-13 91-21 184-21 279 0 96 8 189 21 280l71-11z"/>
  <path class="fil3 str0" d="m1940 1672c83-160 190-307 316-434l-50-51c-132 133-243 285-329 453l63 32z"/>
  <path class="fil4 str0" d="m1947 3268l518-264c-52-103-89-215-108-333l-574 91c29 179 85 349 164 506z"/>
  <path class="fil4 str0" d="m1783 2199l574 91c19-118 56-230 108-333l-518-264c-79 157-135 327-164 506z"/>
  <path class="fil2 str0" d="m1767 2197c30-181 86-353 166-511l-63-33c-84 165-143 344-173 533l70 11z"/>
  <path class="fil2 str0" d="m1933 3275c-80-158-136-330-166-511l-70 11c30 189 89 368 173 532l63-32z"/>
  <path class="fil2 str0" d="m2701 4050c-160-83-307-190-434-316l-50 50c132 132 284 243 452 329l32-63z"/>
  <path class="fil2 str0" d="m2267 1227c127-126 274-233 434-316l-32-63c-168 86-320 197-452 329l50 50z"/>
  <path class="fil2" d="m1829 3566v242h-60v-130c0-19-1-30-2-34-1-3-3-6-7-8s-13-3-27-3h-6v-28c29-7 51-19 66-39h36zm168 65h-60v-22c0-3-2-5-4-7s-5-3-9-3c-3 0-5 1-7 3s-4 4-4 7v57c3-7 7-12 13-15s14-5 23-5c11 0 20 3 29 9 8 6 14 13 16 22 2 8 3 19 3 34v19c0 17 0 29-1 38-2 8-5 16-11 23-5 7-13 12-23 16s-21 6-34 6c-17 0-30-2-40-7-11-4-19-11-24-19-6-9-9-18-10-27s-2-27-2-54v-33c0-29 1-48 2-58s4-19 10-27c6-9 14-16 25-20 10-4 23-7 36-7 17 0 31 3 42 9 11 5 19 13 23 23 5 10 7 23 7 38zm-60 75c0-9-1-14-3-18-2-3-5-4-9-4s-7 1-9 4-3 9-3 18v44c0 10 1 17 3 21 1 3 4 4 9 4 2 0 5-1 8-3 3-3 4-10 4-21v-45z"/>
  <path class="fil2" d="m1611 3089c9 3 16 9 21 16s7 24 7 51c0 19-2 34-6 43s-11 17-22 23-25 9-44 9c-18 0-32-3-43-9-10-6-18-13-22-22-5-10-7-25-7-47 0-15 1-28 3-38 3-11 10-20 22-26-8-4-13-9-17-17s-6-18-6-30c0-21 6-37 18-47 11-10 28-16 51-16 27 0 45 6 56 17 10 11 15 27 15 47 0 13-2 23-5 29-3 5-10 11-21 17zm-34-52c0-8 0-14-2-16-1-3-4-4-8-4s-7 1-8 4c-2 3-2 8-2 16v18c0 8 0 13 2 15 2 3 4 5 8 5s7-2 8-5c2-2 2-8 2-17v-16zm2 100c0-9-1-15-3-18s-5-5-9-5-7 2-9 5-3 9-3 18v32c0 10 1 17 3 20s5 4 10 4c4 0 7-1 8-4 2-3 3-10 3-21v-31z"/>
  <path class="fil2" d="m1463 2359v242h-60v-130c0-18-1-30-2-33 0-4-3-7-7-9s-13-3-27-3h-6v-28c29-6 51-19 67-39h35zm117 0v242h-61v-130c0-18 0-30-1-33-1-4-3-7-7-9s-13-3-27-3h-6v-28c29-6 51-19 66-39h36z"/>
  <path class="fil2" d="m1533 1711v242h-60v-130c0-19-1-30-2-34-1-3-3-6-7-8s-13-3-27-3h-6v-28c29-7 51-19 66-39h36zm147 0v158h17v42h-17v42h-61v-42h-72v-42l53-158h80zm-61 158v-103l-26 103h26z"/>
  <path class="fil2" d="m1783 1344h60v21c1 3 2 5 4 7s5 3 9 3c3 0 6-1 8-2 2-2 3-5 3-8v-56c-3 6-7 11-13 14s-14 5-22 5c-12 0-21-3-30-9-8-6-14-13-16-22-2-8-3-19-3-34v-19c0-17 0-29 2-38 1-8 4-16 10-23s13-12 23-16 21-6 35-6c16 0 29 2 39 7 11 4 19 11 24 19 6 9 9 17 10 27 1 9 2 27 2 54v33c0 29-1 48-2 58 0 10-4 19-10 28-6 8-14 15-25 19-10 5-22 7-36 7-17 0-31-3-42-8-11-6-19-14-23-24-5-10-7-22-7-37zm60-76c0 10 1 17 4 19s5 4 8 4c4 0 7-2 9-5s3-9 3-18v-44c0-10-1-17-2-21-2-3-5-5-10-5-2 0-5 2-8 4-3 3-4 10-4 21v45z"/>
  <path class="fil2" d="m2291 704v242h-60v-130c0-19 0-30-1-34-1-3-4-6-8-8s-13-3-26-3h-6v-28c29-6 51-19 66-39h35zm154 201v41h-133v-34c40-65 63-104 71-120 7-15 11-27 11-36 0-6-1-11-4-14-2-3-5-5-10-5s-8 2-10 5c-2 4-4 11-4 22v22h-54v-8c0-14 1-25 2-32 2-8 5-16 11-23 5-8 12-14 21-18s19-5 32-5c24 0 42 5 54 17s19 27 19 46c0 13-4 28-11 44-7 15-27 48-61 98h66z"/>
  <path class="fil5 str0" d="m3553 2437c-11-11-27-18-44-18-16 0-32 7-43 18s-18 27-18 43c0 17 7 33 18 44s27 18 43 18c17 0 33-7 44-18s18-27 18-44c0-16-7-32-18-43z"/>
  <path class="fil2 str0" d="m3241 736c87-13 177-20 268-20 92 0 181 7 269 20l11-71c-91-14-184-21-280-21-95 0-188 7-279 21l11 71z"/>
  <path class="fil6 str0" d="m3686 1413c109 18 212 52 308 100l32-63c-102-52-212-88-329-107l-11 70z"/>
  <path class="fil6 str0" d="m4280 1721c75 77 140 165 190 262l63-33c-53-103-122-197-203-279l-50 50z"/>
  <path class="fil6 str0" d="m4579 2319c8 52 12 106 12 161s-4 109-12 162l70 11c9-56 13-114 13-173 0-58-4-116-13-172l-70 11z"/>
  <path class="fil6 str0" d="m4470 2978c-50 97-115 185-190 262l50 50c81-82 150-176 203-279l-63-33z"/>
  <path class="fil6 str0" d="m3994 3448c-96 47-199 82-308 99l11 71c117-19 227-56 329-107l-32-63z"/>
  <path class="fil6 str0" d="m3322 3618l11-71c-109-17-212-52-308-99l-32 63c102 51 212 88 329 107z"/>
  <path class="fil6 str0" d="m2739 3240c-75-77-140-165-190-262l-63 33c53 103 122 197 203 279l50-50z"/>
  <path class="fil6 str0" d="m2440 2642c-8-53-12-107-12-162s4-109 12-161l-71-11c-8 56-12 114-12 172 0 59 4 117 12 173l71-11z"/>
  <path class="fil6 str0" d="m2549 1983c50-97 115-185 190-262l-50-50c-81 82-150 176-203 279l63 33z"/>
  <path class="fil6 str0" d="m3025 1513c96-48 199-82 308-100l-11-70c-117 19-227 55-329 107l32 63z"/>
  <path class="fil3 str0" d="m3793 738c181 30 353 86 511 166l32-63c-164-84-343-143-532-173l-11 70z"/>
  <path class="fil3 str0" d="m4763 1238c126 127 233 274 316 434l63-32c-86-168-197-320-329-453l-50 51z"/>
  <path class="fil3 str0" d="m5254 2212c13 87 20 177 20 268 0 92-7 181-20 269l70 11c14-91 22-184 22-280 0-95-8-188-22-279l-70 11z"/>
  <path class="fil3 str0" d="m5079 3289c-83 160-190 307-316 434l50 50c132-132 243-285 329-452l-63-32z"/>
  <path class="fil3 str0" d="m4304 4057c-158 79-330 136-511 165l11 71c189-30 368-90 532-173l-32-63z"/>
  <path class="fil3 str0" d="m3226 4222c-181-29-353-86-511-165l-32 63c164 83 343 143 532 173l11-71z"/>
  <path class="fil3 str0" d="m2715 904c158-80 330-136 511-166l-11-70c-189 30-368 89-532 173l32 63z"/>
  <path class="fil4 str0" d="m3243 751l91 574c57-8 116-13 175-13 60 0 119 5 176 13l91-574c-87-13-176-20-267-20-90 0-179 7-266 20z"/>
  <path class="fil7 str0" d="m3509 1414c-54 0-107 4-159 12l139 875c7 0 13-1 20-1s14 1 21 1l139-875c-52-8-105-12-160-12z"/>
  <path class="fil4 str0" d="m4311 925l-264 518c104 54 200 124 283 206l411-411c-126-125-271-231-430-313z"/>
  <path class="fil4 str0" d="m5072 1693l-518 264c52 103 89 215 108 333l574-91c-29-179-85-349-164-506z"/>
  <path class="fil4 str0" d="m5236 2762l-574-91c-19 118-56 230-108 333l518 264c79-157 135-327 164-506z"/>
  <path class="fil4 str0" d="m4741 3723l-411-411c-83 82-179 152-283 206l264 518c159-82 304-188 430-313z"/>
  <path class="fil4 str0" d="m3776 4210l-91-574c-57 8-116 13-176 13-59 0-118-5-175-13l-91 574c87 13 176 20 266 20 91 0 180-7 267-20z"/>
  <path class="fil4 str0" d="m2708 4036l264-518c-104-54-200-124-283-206l-411 411c126 125 271 231 430 313z"/>
  <path class="fil4 str0" d="m2278 1238l411 411c83-82 179-152 283-206l-264-518c-159 82-304 188-430 313z"/>
  <path class="fil7 str0" d="m3019 1534c-96 49-182 113-258 187l627 627c10-10 21-18 33-24l-402-790z"/>
  <path class="fil7 str0" d="m3346 2406l-790-403c-47 94-81 196-98 303l875 139c3-14 7-27 13-39z"/>
  <path class="fil7 str0" d="m3333 2516l-875 139c17 107 51 209 98 303l790-403c-6-12-10-25-13-39z"/>
  <path class="fil7 str0" d="m3388 2613l-627 627c76 74 162 138 258 187l402-790c-12-7-23-15-33-24z"/>
  <path class="fil7 str0" d="m3489 2659l-139 876c52 7 105 12 159 12 55 0 108-5 160-12l-139-876c-7 1-14 2-21 2s-13-1-20-2z"/>
  <path class="fil7 str0" d="m3598 2637l402 790c96-49 182-113 258-187l-627-627c-10 9-21 17-33 24z"/>
  <path class="fil7 str0" d="m3673 2555l790 403c47-94 81-196 98-303l-875-139c-3 14-7 27-13 39z"/>
  <path class="fil7 str0" d="m3686 2445l875-139c-17-107-51-209-98-303l-790 403c6 12 10 25 13 39z"/>
  <path class="fil7 str0" d="m3631 2348l627-627c-76-74-163-138-258-187l-402 790c12 6 23 14 33 24z"/>
  <path class="fil2 str0" d="m3509 4245c-91 0-181-7-268-20l-11 70c91 14 184 22 279 22 96 0 189-8 280-22l-11-70c-88 13-177 20-269 20z"/>
  <path class="fil2 str0" d="m4752 3734c-127 126-274 233-434 316l32 63c167-86 320-197 452-329l-50-50z"/>
  <path class="fil2 str0" d="m5251 2764c-29 181-86 353-165 511l63 32c84-164 143-343 173-532l-71-11z"/>
  <path class="fil2 str0" d="m5086 1686c79 158 136 330 165 511l71-11c-30-189-89-368-173-533l-63 33z"/>
  <path class="fil2 str0" d="m4752 1227l50-50c-132-132-285-243-452-329l-32 63c160 83 307 190 434 316z"/>
  <path class="fil4 str0" d="m3509 2316c-91 0-164 73-164 164s73 165 164 165 165-74 165-165-74-164-165-164zm-54 219c-13-14-22-33-22-55 0-21 9-40 22-54 14-14 33-22 54-22 22 0 41 8 55 22 13 14 22 33 22 54 0 22-9 41-22 55-14 13-33 22-55 22-21 0-40-9-54-22z"/>
  <path class="fil2" d="m3494 521v41h-133v-34c39-65 63-105 70-120 8-15 11-27 11-36 0-6-1-11-3-14-2-4-6-5-10-5-5 0-8 2-11 5-2 4-3 11-3 21v23h-54v-9c0-13 1-24 2-32 1-7 5-15 10-23 6-7 13-13 22-17 8-4 19-6 31-6 24 0 42 6 55 18 12 12 18 27 18 45 0 14-3 29-10 44-7 16-28 49-62 99h67zm166-119v81c0 18-1 31-3 40-2 8-7 16-13 23s-14 13-23 16c-8 3-18 5-29 5-15 0-27-2-36-5-10-4-17-9-23-16s-10-14-12-22c-3-8-4-21-4-38v-84c0-22 2-39 6-50s11-20 23-27c11-6 25-10 41-10 14 0 25 3 36 7 10 5 18 11 23 17 5 7 9 14 11 23 2 8 3 22 3 40zm-61-20c0-13 0-21-2-24-1-4-4-5-8-5-5 0-8 1-9 5-2 3-2 11-2 24v118c0 14 0 22 2 25 1 3 4 4 8 4 5 0 8-1 9-5 2-3 2-11 2-23v-119z"/>
  <path class="fil2" d="m4197 423v242h-61v-130c0-19 0-30-1-34s-3-7-7-9c-5-2-13-3-27-3h-6v-28c29-6 51-19 66-38h36z"/>
  <path class="fil2" d="m4666 702v242h-60v-130c0-18 0-30-1-33-1-4-4-7-8-9s-13-3-27-3h-6v-28c30-6 52-19 67-39h35zm139 105c9 4 16 9 21 16 4 7 7 24 7 51 0 20-2 34-6 43-4 10-11 17-22 23s-26 9-44 9-32-3-43-9c-10-5-18-13-22-22-5-9-7-25-7-47 0-15 1-27 3-38 3-11 10-19 21-26-7-3-13-9-16-17-4-8-6-18-6-30 0-21 6-36 17-47 12-10 29-15 52-15 27 0 45 5 55 16 11 11 16 27 16 48 0 13-2 22-5 28-4 6-10 11-21 17zm-34-52c0-8 0-13-2-16-1-3-4-4-8-4s-7 1-8 4c-2 3-2 8-2 16v19c0 7 0 12 2 15s4 4 8 4 7-1 8-4c2-3 2-9 2-17v-17zm2 101c0-10-1-16-3-19s-5-4-9-4-7 1-9 4-3 9-3 19v31c0 10 1 17 3 20s5 5 10 5c4 0 7-2 8-5 2-3 3-10 3-20v-31z"/>
  <path class="fil2" d="m5210 1152v158h17v41h-17v43h-60v-43h-72v-41l52-158h80zm-60 158v-103l-27 103h27z"/>
  <path class="fil2" d="m5415 1715v242h-60v-130c0-18-1-30-2-33-1-4-3-7-7-9s-13-3-27-3h-6v-28c29-6 51-19 66-39h36zm137 105c9 4 16 9 20 16 5 7 7 23 7 49 0 19-2 34-7 45-4 10-12 18-22 24-11 6-25 8-42 8-19 0-34-3-45-9-11-7-18-15-21-24-4-9-5-26-5-49v-19h60v40c0 10 1 17 2 20s4 4 8 4c5 0 8-2 9-5 2-4 3-13 3-29v-16c0-10-1-16-3-21-3-4-6-7-10-8s-12-2-23-2v-36c14 0 23 0 26-1s6-4 7-7c2-4 3-10 3-18v-13c0-9-1-14-3-17s-4-4-8-4-7 1-9 4c-1 3-2 9-2 18v20h-60v-20c0-23 5-39 15-47 11-8 28-12 51-12 29 0 48 5 58 17 11 11 16 27 16 47 0 13-2 23-6 29-3 6-10 11-19 16z"/>
  <path class="fil2" d="m5621 2424h-60c0-11 0-18-1-21 0-3-1-6-3-8s-5-3-9-3c-3 0-6 1-8 3s-3 4-3 7c-1 3-1 9-1 18v39c3-7 8-11 14-15 6-3 13-4 22-4 11 0 21 3 29 9 9 6 14 13 17 21 2 8 3 20 3 34v19c0 17-1 30-2 38s-5 16-10 23c-6 7-14 12-23 16-10 4-22 6-35 6-16 0-29-2-40-7-10-4-18-11-24-19-5-8-9-17-10-26-1-10-1-28-1-54v-34c0-29 0-48 1-58 1-9 5-19 11-27 6-9 14-15 25-20 10-4 22-6 36-6 17 0 31 3 42 8 11 6 18 13 23 23s7 23 7 38zm-60 75c0-8-1-14-3-17s-5-5-9-5c-5 0-8 2-10 5s-3 8-3 17v44c0 11 1 18 3 21s5 5 9 5c3 0 6-1 9-4 2-3 4-9 4-20v-46z"/>
  <path class="fil2" d="m5421 2983v242h-60v-130c0-19-1-30-1-34-1-4-4-7-8-9s-13-3-27-3h-6v-28c29-6 52-19 67-38h35zm166 82v80c0 19-1 32-3 40-2 9-6 17-12 24-7 7-14 12-23 15-9 4-19 5-30 5-14 0-26-1-36-5-9-3-17-8-23-15-5-7-9-15-12-23-2-8-3-20-3-37v-84c0-23 2-39 5-50 4-11 12-20 23-27 12-7 25-10 42-10 13 0 25 2 35 7 11 5 19 10 24 17s8 14 10 22c2 9 3 22 3 41zm-60-21c0-13-1-21-2-24s-4-5-9-5c-4 0-7 2-9 5-1 4-2 12-2 24v118c0 14 1 23 2 26s4 4 9 4c4 0 7-2 9-5 1-4 2-11 2-23v-120z"/>
  <path class="fil2" d="m5134 3546v243h-61v-130c0-19 0-30-1-34s-3-7-7-9-13-3-27-3h-6v-28c29-6 51-19 66-39h36zm155 0v39h-75v41c9-11 21-16 36-16 17 0 30 4 38 14 9 9 13 27 13 54v34c0 17-1 30-2 38-2 8-6 15-11 22s-13 12-23 16c-9 3-21 5-35 5-15 0-29-3-41-8s-20-13-25-24-8-28-8-50v-13h60v15c0 15 1 26 2 33s5 10 12 10c3 0 5-1 7-3s3-4 3-6 0-12 1-29v-47c0-9-1-16-3-19s-5-5-10-5c-3 0-5 1-7 3-2 1-3 3-4 5 0 2-1 7-1 14h-59l2-123h130z"/>
  <path class="fil2" d="m4772 4213v42h-133v-35c39-64 63-104 70-119 8-16 11-28 11-36 0-7-1-12-3-15s-6-5-10-5c-5 0-8 2-11 6-2 3-3 10-3 21v23h-54v-9c0-14 0-24 2-32 1-8 5-16 10-23 6-8 13-13 22-17 8-4 19-6 31-6 24 0 42 6 55 18 12 12 18 27 18 45 0 14-3 28-10 44-7 15-28 48-62 98h67z"/>
  <path class="fil2" d="m4116 4303v242h-60v-130c0-19-1-30-1-34-1-3-4-6-8-8s-13-3-27-3h-6v-28c29-7 52-19 67-39h35zm130 0v53l-38 189h-60l43-198h-60v-44h115z"/>
  <path class="fil2" d="m3548 4504c9 3 16 8 20 15 5 7 7 23 7 49 0 19-2 34-7 45-4 10-12 19-22 24-11 6-25 8-42 8-19 0-34-3-45-9-11-7-18-15-21-24-4-9-5-25-5-49v-19h60v40c0 10 0 17 2 20 1 3 4 4 8 4 5 0 8-2 9-5 2-4 3-13 3-28v-17c0-10-1-16-4-21-2-4-5-7-9-8s-12-2-24-2v-36c15 0 24 0 27-1s6-4 7-7c2-4 3-10 3-18v-13c0-9-1-14-3-17s-4-4-8-4-7 2-9 4c-1 3-2 9-2 19v19h-60v-20c0-23 5-39 15-47 11-8 28-12 51-12 29 0 48 5 58 17 11 11 16 27 16 47 0 13-2 23-6 29-3 6-10 12-19 17z"/>
  <path class="fil2" d="m2841 4298v242h-60v-130c0-19 0-30-1-34s-4-7-8-9-13-3-27-3h-6v-28c30-6 52-19 67-38h35zm24 177h60c0 12 0 19 1 22 0 3 1 5 3 7 3 2 6 3 9 3s6-1 8-3c2-1 3-4 3-7 1-3 1-9 1-18v-38c-3 6-8 11-14 14s-13 5-22 5c-11 0-21-3-29-9-9-6-14-13-17-22-2-8-3-19-3-34v-19c0-17 1-29 2-38 1-8 5-16 10-23 6-7 14-12 24-16 9-4 21-6 34-6 16 0 29 2 40 7 10 4 18 11 24 19 5 9 9 17 10 27 1 9 1 27 1 54v33c0 29 0 48-1 58s-4 19-11 28c-6 8-14 15-24 19-11 4-23 7-37 7-17 0-31-3-42-9-10-5-18-13-23-23s-7-22-7-38zm60-75c0 10 2 17 4 19 3 2 6 4 8 4 5 0 8-2 10-5s3-9 3-18v-44c0-10-1-17-3-21-2-3-5-5-9-5-3 0-6 2-9 4-2 3-4 10-4 21v45z"/>
  <polygon class="fil2" points="2374 4014 2374 4067 2336 4257 2276 4257 2319 4058 2259 4058 2259 4014"/>
  <path class="fil2" d="m2946 414v39h-75v41c10-11 22-16 37-16 16 0 29 4 38 14 8 9 12 27 12 53v35c0 17 0 30-2 38s-5 15-11 22c-5 7-13 12-22 16-10 3-22 5-35 5-16 0-30-3-42-8s-20-14-25-24c-5-11-7-28-7-50v-13h60v15c0 15 0 26 2 33 1 6 5 10 11 10 3 0 6-1 7-3 2-2 3-4 4-6v-76c0-10-1-16-3-19s-5-5-9-5c-3 0-6 1-8 3-1 1-3 3-3 5-1 2-1 6-1 14h-60l3-123h129z"/>
  <path class="fil8" d="m1894 2480h881c-87-131-207-277-212-281-5-6-12-10-26-14-103-23-375-46-418-45-52 0-125 3-146 79l-79 261z"/>
  <path class="fil8" d="m1894 2480l876-3 5 3c-87 132-207 278-212 282-5 5-12 10-26 13-103 24-375 47-418 46-52 0-125-4-146-79l-79-262z"/>
  <path class="fil1" d="m4456 2417l-106-18v10h-13v-12h-43v12h-22v-12h-44v12h-22v-12h-44v12h-22v-12h-44v12h-22v-12h-44v12h-22v-12h-44v12h-22v-12h-44v12h-22v-12h-43v12l-22 2v-12l-44 3v12l-22 2v-13l-44 3v14l-22 1v-14l-149 10c-82 2-210 17-242 18h-309c-111 0-306 4-389 22-28 6-27 14-27 23l1893 1v-64z"/>
  <path class="fil1" d="m4456 2425c14 1 16 1 25 2 40 4 90 31 117 32l314 5c27 0 33 7 33 17h-489v-56z"/>
  <path class="fil1" d="m4456 2544l-106 18v-10h-13v12h-43v-12h-22v12h-44v-12h-22v12h-44v-12h-22v12h-44v-12h-22v12h-44v-12h-22v12h-44v-12h-22v12h-44v-12h-22v12h-43v-12l-22-2v12l-44-3v-13l-22-1v13l-44-3v-14l-22-2v14l-149-9c-82-2-210-18-242-18h-309c-111 0-306-4-389-22-28-6-27-14-27-24h1893v64z"/>
  <path class="fil1" d="m4456 2536c14-1 16-1 25-2 40-4 90-32 117-32l314-5c27 0 33-7 33-17h-489v56z"/>
  <polygon class="fil0" points="4008 2397 3964 2397 3964 2564 4008 2564"/>
  <rect class="fil0" x="4030" y="2397" width="43.626" height="166.58"/>
  <rect class="fil0" x="4096" y="2397" width="44.191" height="166.58"/>
  <rect class="fil0" x="4162" y="2397" width="43.796" height="166.58"/>
  <rect class="fil0" x="4228" y="2397" width="43.728" height="166.58"/>
  <polygon class="fil0" points="4337 2397 4294 2397 4294 2564 4338 2564"/>
  <polygon class="fil0" points="4456 2417 4350 2399 4350 2562 4455 2543"/>
  <polygon class="fil0" points="3942 2397 3898 2397 3898 2564 3942 2564"/>
  <polygon class="fil0" points="3876 2397 3833 2397 3833 2564 3876 2564"/>
  <polygon class="fil0" points="3811 2399 3767 2402 3767 2559 3811 2562"/>
  <polygon class="fil0" points="3745 2403 3701 2406 3701 2555 3745 2558"/>
  <polygon class="fil0" points="3530 2417 3679 2407 3679 2553 3530 2544"/>
  <path class="fil8" d="m5056 2944h-882c87-131 207-278 212-282 5-5 12-10 26-13 103-23 376-47 418-46 53 0 125 4 147 79l79 262z"/>
  <path class="fil8" d="m5056 2944l-876-4-6 4c87 131 207 278 212 282 5 5 12 10 26 13 103 23 376 47 418 45 53 1 125-3 147-78l79-262z"/>
  <path class="fil1" d="m2494 2881l105-19v10h13v-11h44v11h22v-11h43v11h23v-11h43v11h22v-11h44v11h23v-11h44v11h22v-11h43v11h22v-11h44v11h22v-11h44v12l22 1v-12l44 3v13l22 2v-13l43 3v13l22 2v-14l149 10c82 2 210 17 242 17 103 0 206 0 309 1 111-1 307 3 389 21 28 7 27 14 27 24h-1892v-63z"/>
  <path class="fil1" d="m2494 2888c-14 1-16 2-25 2-40 4-90 32-118 33l-314 4c-27 1-32 7-32 17h489v-56z"/>
  <path class="fil1" d="m2494 3007l105 18v-10h13v12h44v-12h22v12h43v-12h23v12h43v-12h22v12h44v-12h23v12h44v-12h22v12h43v-12h22v12h44v-12h22v12h44v-12l22-2v12l44-2v-13l22-2v13l43-3v-13l22-2v14l149-10c82-2 210-17 242-17 103-1 206-1 309-1 111 0 307-4 389-22 28-6 27-13 27-23l-1892-1v64z"/>
  <path class="fil1" d="m2494 2999c-14-1-16-1-25-2-40-4-90-31-118-32l-314-5c-27 0-32-6-32-17h489v56z"/>
  <polygon class="fil0" points="2942 2861 2985 2861 2985 3027 2942 3027"/>
  <rect class="fil0" x="2876" y="2861" width="43.626" height="166.58"/>
  <rect class="fil0" x="2809" y="2861" width="44.191" height="166.58"/>
  <rect class="fil0" x="2743" y="2861" width="43.796" height="166.58"/>
  <rect class="fil0" x="2678" y="2861" width="43.728" height="166.58"/>
  <polygon class="fil0" points="2612 2861 2656 2861 2656 3027 2612 3027"/>
  <polygon class="fil0" points="2494 2881 2599 2862 2599 3025 2494 3007"/>
  <polygon class="fil0" points="3007 2861 3051 2861 3051 3027 3007 3027"/>
  <polygon class="fil0" points="3073 2861 3117 2861 3117 3027 3073 3027"/>
  <polygon class="fil0" points="3139 2862 3183 2865 3183 3023 3139 3025"/>
  <polygon class="fil0" points="3205 2867 3248 2870 3248 3018 3205 3021"/>
  <polygon class="fil0" points="3419 2881 3270 2871 3270 3017 3419 3007"/>
  <path class="fil8" d="m5056 2017h-882c87-131 207-278 212-282 5-5 12-10 26-13 103-23 376-47 418-45 53-1 125 3 147 78l79 262z"/>
  <path class="fil8" d="m5056 2017l-876-4-6 4c87 131 207 278 212 282 5 5 12 10 26 13 103 23 376 47 418 45 53 1 125-3 147-78l79-262z"/>
  <path class="fil1" d="m2494 1954l105-19v10h13v-11h44v11h22v-11h43v11h23v-11h43v11h22v-11h44v11h23v-11h44v11h22v-11h43v11h22v-11h44v11h22v-11h44v12l22 2v-13l44 3v13l22 2v-13l43 3v13l22 2v-14l149 10c82 2 210 17 242 17 103 0 206 1 309 1 111-1 307 3 389 22 28 6 27 13 27 23l-1892 1v-64z"/>
  <path class="fil1" d="m2494 1961c-14 1-16 2-25 2-40 4-90 32-118 33l-314 4c-27 1-32 7-32 18h489v-57z"/>
  <path class="fil1" d="m2494 2080l105 19v-10h13v11h44v-11h22v11h43v-11h23v11h43v-11h22v11h44v-11h23v11h44v-11h22v11h43v-11h22v11h44v-11h22v11h44v-12l22-2v13l44-3v-13l22-2v13l43-3v-13l22-2v14l149-10c82-2 210-17 242-17 103 0 206-1 309-1 111 1 307-3 389-22 28-6 27-13 27-23l-1892-1v64z"/>
  <path class="fil1" d="m2494 2072c-14 0-16-1-25-2-40-3-90-31-118-32l-314-4c-27-1-32-7-32-18h489v56z"/>
  <polygon class="fil0" points="2942 1934 2985 1934 2985 2100 2942 2100"/>
  <rect class="fil0" x="2876" y="1934" width="43.626" height="166.58"/>
  <rect class="fil0" x="2809" y="1934" width="44.191" height="166.58"/>
  <rect class="fil0" x="2743" y="1934" width="43.796" height="166.58"/>
  <rect class="fil0" x="2678" y="1934" width="43.728" height="166.58"/>
  <polygon class="fil0" points="2612 1934 2656 1934 2656 2100 2612 2100"/>
  <polygon class="fil0" points="2494 1954 2599 1935 2599 2099 2494 2080"/>
  <polygon class="fil0" points="3007 1934 3051 1934 3051 2100 3007 2100"/>
  <polygon class="fil0" points="3073 1934 3117 1934 3117 2100 3073 2100"/>
  <polygon class="fil0" points="3139 1935 3183 1938 3183 2096 3139 2099"/>
  <polygon class="fil0" points="3205 1940 3248 1943 3248 2091 3205 2094"/>
  <polygon class="fil0" points="3419 1954 3270 1944 3270 2090 3419 2080"/>
  <rect class="fil9" x="3" width="7013" height="4961"/>
</svg>
