<?xml version="1.0" encoding="UTF-8"?>
<svg viewBox="0 0 300 346" xmlns="http://www.w3.org/2000/svg">
 <g transform="matrix(.8712 0 0 .91718 13.909 9.3867)" fill-rule="evenodd" stroke-width="0">
  <path d="m172.08 169.79c18.884-2.8258 37.747-12.183 54.059-23.115 11.882-11.873 16.448-28.742 20.963-44.401 4.1547-15.165-1.8777-30.593-11.563-42.246-7.1087-8.605-12.614-20.783-23.862-24.364-12.982-2.781-19.326-15.881-25.303-25.5-10.909-3.2918-23.396-1.5918-34.779-1.5528-22.676 0.5183-40.146 14.344-56.245 28.582-12.461 10.784-23.671 25.448-22.885 42.784-1.6642 20.16-2.351 42.564 11.057 59.277 10.769 14.327 27.896 23.328 45.183 26.978 14.498 0.50923 29.356 5.6549 43.376 3.5569z" fill="#bf7f3f"/>
  <g fill="#252621">
   <path d="m114.03 96.596l-2.9828-3.9005-5.9655-3.6711-4.5889 0.4589-1.8355 3.2122 1.1472 4.13s3.0724 3.7075 4.13 4.5888c1.3767 1.1472 6.195 1.1472 6.195 1.1472l3.9005-5.9655z"/>
   <path d="m167.26 92.924l1.8355-2.5239s1.3767-2.7533 3.4416-3.2122c2.065-0.45888 3.2122-1.1472 5.2772-1.1472s4.13 0.91779 5.9655 1.1472c1.8355 0.22944 3.2122 7.3422 3.2122 7.3422s-2.7533 6.8833-3.9005 7.1127c-1.1472 0.22945-5.5066 2.5239-5.5066 2.5239l-5.9655-5.7361-4.3594-5.5066z"/>
  </g>
  <path d="m166.8 93.154l-7.3422-3.2122-12.619-1.3767h-13.078l-9.4072 2.9827-8.4894 3.9005-2.2944 2.065-4.3594 7.1127-3.9005 7.3422-1.1472 11.013 0.9178 9.866s0.45889 1.8355 5.2772 6.195c4.8183 4.3594 9.4072 8.26 9.4072 8.26l14.226 4.8183 9.1777 0.4589 11.013-0.2294 9.866-3.4416 8.4894-4.3594 7.1127-7.1127s2.5239-8.4894 2.5239-9.4072c0-0.91776-0.68832-10.325-0.68832-10.325l-2.7533-8.7188s-2.065-4.5889-2.7533-5.7361c-0.68832-1.1472-3.6711-4.5889-4.8183-5.7361s-5.2772-4.5889-4.3594-4.3594z" fill="#c9a582"/>
  <path d="m153.5 113.12l-4.3594-3.2122-5.2772-2.7533h-7.5716l-5.9655 0.6883-4.8183 1.8355-2.2944 5.9655 1.3767 5.9655 4.13 4.3594 5.2772 3.9005 6.4244 1.6061 2.9828-2.7533s3.6002-1.8201 4.8183-3.2122c1.6061-1.8356 2.401-3.5482 3.2122-4.3594 0.91777-0.91777 1.8355-3.4416 1.8355-3.4416l0.2294-4.5889z" fill="#352727"/>
  <path d="m187.01 9.1883l6.1651-3.0826 5.8407-2.2714 6.6519-0.8112 10.221 1.1357 11.844 3.407 12.006 5.0295s8.4365 7.7876 9.8967 9.0855 3.407 8.9232 3.407 8.9232l1.9469 15.251-2.1091 8.2743-6.1651 10.546-3.8938 7.7876-0.4867 0.8112-14.439-21.578-14.926-16.062-3.4071 0.3245h-3.2448s-1.4602-0.32448-2.5959-1.6224-2.1091-1.1357-2.7581-2.2714c-0.64896-1.1357-0.97343-2.2714-2.2714-3.0826-1.2979-0.8112-1.7846-0.97344-2.5959-1.9469-0.8112-0.97344-3.2448-2.2714-4.3805-3.5693s-2.9203-3.4071-2.9203-3.4071-0.8112-3.407-1.1357-4.2183c-0.32449-0.8112-1.7846-4.3805-1.7846-4.3805l1.1357-2.2714z" fill="#c9a582"/>
  <path d="m212.63 34.822s0.32448-5.6784 0.32448-6.6519v-5.354c0-1.1357 0.97345-2.7581 1.7846-2.7581 0.8112 0 3.7315 3.2448 5.8407 4.056 2.1091 0.8112 9.8967 6.1651 11.357 7.4631 1.4602 1.2979 4.8672 8.112 4.8672 9.5722s-0.8112 6.0029-1.6224 7.3008-1.2979 4.2183-2.7581 4.705c-1.4602 0.48672-3.8938 0.64896-3.8938 0.64896l-10.708-12.655-4.8672-5.3539-0.3245-0.9734z" fill="#e6029a"/>
  <path d="m114.92 21.843s-9.8967-4.056-10.708-4.2183c-0.8112-0.16224-7.7876-2.2714-7.7876-2.2714l-4.2183-0.4867s-6.1652-0.48672-6.8141-0.32448c-0.64897 0.16224-7.3008 1.1357-7.3008 1.1357s-4.3805 3.7315-5.5162 4.2183c-1.1357 0.48672-6.9764 8.4365-6.9764 8.4365l-4.5427 8.5987-1.7846 8.9232 0.1622 6.9763 2.5958 8.4365 4.705 11.519 7.3008 6.0029 1.1357-11.357 8.4365-16.224 13.79-15.251 17.522-14.115z" fill="#c9a582"/>
  <path d="m87.518 42.448c0-0.97345-2.1092-3.4071-2.9203-4.8672-0.8112-1.4602-1.6224-2.1091-2.7581-2.4336-1.1357-0.32448-3.0826 0.16225-3.5693 0.97345-0.48672 0.8112-2.1091 4.705-2.9203 5.3539-0.8112 0.64896-4.3805 6.0029-4.5427 7.4631-0.16224 1.4602-1.4602 9.7344-1.4602 9.7344s2.5958 5.0295 3.7315 5.1917c1.1357 0.16224 3.0826-0.64897 3.5693-1.9469 0.48673-1.2979 4.056-4.3805 4.2182-5.8407 0.16225-1.4602 0.64897-2.7581 1.1357-4.3805 0.48672-1.6224 1.2979-2.9203 2.2714-4.056 0.97345-1.1357 2.4336-2.4336 2.5958-3.2448 0.16224-0.8112 0.32449-1.6224 0.64897-1.9469z" fill="#e6029a"/>
  <path d="m91.548 148.26c-6.195 3.9272-12.39 7.8544-18.585 11.782 10.37 11.188 9.4123 20.915 19.225 32.601 2.1368 4.1614-8.256 13.28-6.4932 14.015-1.1521 10.014 6.8498 9.2898 5.6836 19.272-1.235 3.3424 13.101-0.58554 10.08 1.5854-2.515 1.9303-4.28 3.8296-0.51968 5.5002 4.8482 3.7882 9.2866 8.2655 14.392 11.622 7.0263 2.3 13.68 6.083 21.214 6.3607 6.784 0.64246 13.566 2.1314 20.351 2.2286 11.823-1.5827 23.773-2.5725 35.515-4.5306 8.969-2.8568 18.161-5.162 26.991-8.3627 2.1598-1.204-4.2997-1.6296-5.7933-2.5037-3.9052-1.223-8.1263-2.2344-11.595-4.2876-6.2402-5.0664-7.4336-13.207-6.7039-20.696 0.94292-7.5459 1.4353-15.395 5.6822-21.991 3.93-7.097 14.835-6.0774 21.997-8.4974 6.1717-1.0368 12.372-1.4809 18.62-0.94011 5.0515 0.29166 10.389 0.1963 15.243 1.122 3.8337 3.3684 7.6675 6.7369 11.501 10.105-2.9022-6.8052-5.5053-13.761-9.8063-19.863-2.7533-4.6867-5.4532-9.414-9.6877-12.975-4.9389-5.4937-12.676-6.9481-19.395-9.3776-2.8534-0.28053-5.8926-2.0091-8.6211-1.3154-7.3574 3.8692-14.828 7.4839-22.766 10.052-9.0757 3.4876-18.245 7.1385-27.586 9.6456-15.324-2.5975-30.857-3.5868-46.363-4.4658-7.4007-3.1705-15.129-5.815-22.192-9.6209-3.2544-2.0787-6.2954-5.1099-9.6805-6.6053l-0.4393 0.0867-0.2687 0.0531z" fill="#13b5eb"/>
  <path d="m97.027 192.49l-23.109-33.801-4.9717 0.162-8.821 2.434s-4.8114 4.056-5.2925 5.029c-0.48112 0.97299-4.0095 5.354-4.9718 5.678-0.96224 0.325-6.736 12.331-6.736 12.331l-1.9246 6.976-2.7265 9.735s-0.32078 8.112 0 8.923 1.2831 6.652 1.6038 7.787c0.32078 1.136 9.4624 10.384 9.4624 10.384l10.264 11.681 8.821 1.46-8.5002-1.298-2.4057 1.785-5.1322-6.327s-3.3679-3.407-4.9717-3.407c-1.6039 0-9.1418-1.298-9.1418-1.298s-8.3398-1.298-9.7832-1.298-5.7736-0.974-6.736 0c-0.96224 0.97299-12.51 12.979-12.51 12.979l13.151 1.947 17 7.787 11.868 10.708 1.6038 12.655 5.1322 36.991s0 9.085-0.96224 10.383c-0.96234 1.298-4.8114 4.219-4.8114 5.517 0 1.297-0.32078 3.244 0.96224 3.244s7.0568 0.32501 8.3398 0.32501c1.2831 0 13.151-2.921 13.151-2.921s45.227-29.203 46.831-29.527c1.6034-0.32498 26.302 1.298 27.585 1.622 1.2831 0.32501 9.9437 3.569 9.9437 3.569l30.151-0.324 19.887 20.767s11.227 9.734 12.51 9.734c1.2831 0 15.076 5.841 15.076 5.841s2.8865 1.298 2.245-0.32501c-0.64156-1.622-5.4528-7.463-5.4528-9.085 0-1.623-2.8865-12.006-2.8865-12.006l-0.9628-20.442s0.64156-9.41 1.2831-10.708c0.64157-1.298 4.4909-11.033 4.4909-11.033l5.773-10.383 8.9818-8.112s7.0562-2.596 8.3393-2.596h10.585c1.2831 0 6.0943 0.64899 9.3021 0.64899s14.435 5.516 14.435 5.516l3.8494 3.894-2.8875-10.708-5.4528-9.41-11.868-5.192h-21.491l-0.3203-3.569s6.7359-6.165 7.3774-7.463c0.64157-1.298 2.8865-9.085 2.8865-9.085l5.4527-11.357s-0.48142-8.274-0.64154-9.248c-0.16016-0.97301-1.6034-4.867-2.4051-6.165-0.8027-1.298-2.0858-3.245-2.5662-4.056-0.48142-0.811-9.142-8.599-9.142-8.599l-22.614-1.46-12.67 1.46-17.481 4.543-3.0477 4.38-3.2078 8.437-1.2821 9.248-0.9628 6.652 0.1601 9.085 5.4538 8.923 19.726 6.652-2.5662 0.974-12.509 4.056s-14.595 4.38-15.397 4.38c-0.80171 0-34.481 3.732-33.84 3.732 0.64157 0-23.737-2.596-23.737-2.596l-17.481-6.49-8.7248-10.875-11.144-9.243s-6.225-2.709-2.7721-2.818c3.453-0.10998 6.0347-23.104 6.0347-23.104l-1.9795-4.097 1.2783-0.589z" fill="#bf7f3f"/>
  <g fill="none">
   <path d="m67.686 244.59s6.195-1.1472 7.5716-1.3767c1.3767-0.22945 8.9483-3.6711 9.866-5.2772 0.91777-1.6061 3.6711-5.0477 4.5889-6.8833 0.91777-1.8355 1.6061-7.1127 1.6061-7.1127"/>
   <path d="m256.52 240l-8.2599 2.065s-7.1127 0.68832-9.866 0.68832h-11.472l-6.8833-0.6883"/>
  </g>
  <g fill="#c9a582">
   <path d="m53.625 330.17s-4.8183 0.72049-5.7361 0.48032c-0.91778-0.24014-6.4244-2.4016-6.4244-2.4016l-11.472-8.1655-8.9483-12.008-8.9483-15.61s-3.9005-8.886-4.13-9.8466c-0.22945-0.96063-4.3594-17.772-4.3594-19.693 0-1.9213 0.22944-8.1654 0.22944-8.1654l2.2944-6.4844 3.4417-7.2048 15.373 2.1615 16.29 8.1655 11.702 10.567 6.8833 52.355-1.3767 11.047-4.8183 4.8032z"/>
   <path d="m238.71 340.87l12.849-0.466 11.702 0.466s8.9483-5.592 9.866-6.291c0.91779-0.699 5.9656-5.359 5.9656-6.291 0-0.93198 9.6366-24.232 9.6366-24.232s2.2944-16.077 2.2944-17.475 3.4416-8.8539 3.6711-10.019c0.22943-1.165 2.5239-8.1549 2.5239-9.3199s-1.8355-4.893-1.8355-4.893l-5.0478-3.029-10.325-4.427-9.4072-1.398s-10.325 0.23299-11.472 0.23299c-1.1472 0-6.4245 0-7.3423 0.46602-0.91777 0.466-7.1127 5.359-8.4894 6.7569-1.3766 1.398-5.2772 7.456-7.8011 10.951s-6.4244 15.611-6.4244 15.611-0.91777 13.98-0.68832 15.611c0.22943 1.631 1.1472 12.349 1.1472 12.349l1.6061 10.485 1.8355 5.592 5.7361 9.3199z"/>
  </g>
 </g>
</svg>
